<svg class="svg-icon" style="width: 1.1044921875em;height: 1em;vertical-align: middle;fill: currentColor;overflow: hidden;" viewBox="0 0 1131 1024" version="1.1" xmlns="http://www.w3.org/2000/svg"><path d="M872.663579 404.587789A205.770105 205.770105 0 1 0 789.935158 51.469474H341.854316a205.770105 205.770105 0 1 0-82.728421 353.118315c66.721684 126.329263 160.175158 236.058947 265.269894 259.557053 4.419368 18.970947 7.221895 38.103579 7.221895 56.050526 0 89.626947-68.608 98.034526-68.608 98.034527h205.770105s-68.608-8.407579-68.608-97.980632c0-18.000842 2.802526-37.133474 7.221895-56.104421 105.094737-23.552 198.548211-133.227789 265.269895-259.557053z m99.705263-290.70821A102.938947 102.938947 0 0 1 917.288421 308.277895c27.486316-68.284632 46.618947-136.407579 55.188211-194.398316zM205.824 308.655158a102.885053 102.885053 0 0 1-46.349474-194.775579c8.515368 57.990737 27.648 126.113684 55.134316 194.398316a104.879158 104.879158 0 0 1-8.784842 0.377263z m235.196632 509.574737h249.856c44.732632 0 80.842105 35.84 80.842105 80.734316V1024H360.124632v-125.035789c0-44.624842 36.540632-80.734316 80.842105-80.734316z m124.928-407.983158l-95.393685 52.816842 18.216421-111.72379-77.177263-79.117473 106.711579-16.276211 47.642948-101.645473 47.696842 101.645473 106.657684 16.276211-77.177263 79.117473 18.216421 111.669895-95.393684-52.762947z" fill="#000000" /></svg>