<svg class="svg-icon" style="width: 1em;height: 1em;vertical-align: middle;fill: currentColor;overflow: hidden;" viewBox="0 0 1024 1024" version="1.1" xmlns="http://www.w3.org/2000/svg"><path d="M512 175.17c-124.26 0-225 100.74-225 225a224.34 224.34 0 0 0 69 162.13v264.13a22.37 22.37 0 0 0 33.56 19.38l9.44-5.45V594.77q9.3 5.41 19.14 10l0.86 0.38v223.66l80.67-46.57a24.66 24.66 0 0 1 24.66 0L605 828.81V605.1a224.3 224.3 0 0 0 20-10.34v245.59l9.44 5.45A22.37 22.37 0 0 0 668 826.43V562.3l0.52-0.49A224.34 224.34 0 0 0 737 400.17c0-124.27-100.74-225-225-225z m0 413c-103.66 0-188-84.34-188-188s84.34-188 188-188 188 84.34 188 188-84.34 188-188 188z"  /><path d="M680 397.82c-1.24-90.61-75-164.4-165.64-165.64C419.86 230.89 342.72 308 344 402.51c1.24 90.61 75 164.4 165.64 165.64 94.5 1.3 171.64-75.84 170.36-170.33z m-71.4-15.15l-52.83 38.39a4.46 4.46 0 0 0-1.62 5l20.18 62.11a4.46 4.46 0 0 1-6.87 5l-52.83-38.39a4.46 4.46 0 0 0-5.25 0l-52.83 38.39a4.46 4.46 0 0 1-6.87-5L469.85 426a4.46 4.46 0 0 0-1.62-5l-52.83-38.33a4.46 4.46 0 0 1 2.62-8.08h65.31a4.46 4.46 0 0 0 4.25-3.08l20.18-62.11a4.46 4.46 0 0 1 8.49 0l20.18 62.11a4.46 4.46 0 0 0 4.25 3.08H606a4.46 4.46 0 0 1 2.6 8.08z"  /></svg>