<svg class="svg-icon" style="width: 1.13671875em; height: 1em;vertical-align: middle;fill: currentColor;overflow: hidden;" viewBox="0 0 1164 1024" version="1.1" xmlns="http://www.w3.org/2000/svg"><path d="M1033.584619 254.985412 1033.584619 384.507294 947.236698 384.507294 947.236698 254.985412 817.714816 254.985412 817.714816 168.637491 947.236698 168.637491 947.236698 39.115608 1033.584619 39.115608 1033.584619 168.637491 1163.106501 168.637491 1163.106501 254.985412 1033.584619 254.985412ZM779.592208 459.975377C774.454507 465.113079 767.676195 468.610169 760.163926 469.81904L511.352391 509.841302 471.675521 759.084577C470.46665 766.64002 466.883211 773.331984 461.74551 778.512859 456.564634 783.650561 449.872671 787.233999 442.317227 788.399696 427.206341 790.817438 412.224977 783.218821 405.273969 769.619024L289.654102 543.603339 38.856565 582.157686C23.745678 584.48908 11.484274 579.437727 4.57644 565.837929-2.331394 552.194957 2.935829 538.292942 13.72932 527.499452L187.029598 356.919133 75.252214 121.448351C68.301206 107.80538 69.596425 89.93136 80.433089 79.13787L79.785479 78.447087C90.57897 67.653596 109.44599 67.308205 123.088962 74.259212L355.667088 185.604857 528.881019 12.434101C539.674509 1.640611 553.576524-3.626613 567.219496 3.281221 580.862467 10.189055 587.20904 23.745678 584.877646 38.856565L545.718863 288.876971 770.914242 403.762881C784.557214 410.713888 791.983135 425.479383 789.608567 440.547095 788.399696 448.145712 784.72991 454.794502 779.592208 459.975377ZM1003.492369 962.563454 942.444388 1023.611434 545.589341 626.756388 606.637322 565.708407 1003.492369 962.563454Z"  /></svg>