<?xml version="1.0" standalone="no"?><svg xmlns="http://www.w3.org/2000/svg" viewBox="0 0 1440 320"><path fill="#f3f2f8" fill-opacity="1" d="M0,96L26.7,106.7C53.3,117,107,139,160,133.3C213.3,128,267,96,320,74.7C373.3,53,427,43,480,74.7C533.3,107,587,181,640,181.3C693.3,181,747,107,800,80C853.3,53,907,75,960,90.7C1013.3,107,1067,117,1120,117.3C1173.3,117,1227,107,1280,112C1333.3,117,1387,139,1413,149.3L1440,160L1440,320L1413.3,320C1386.7,320,1333,320,1280,320C1226.7,320,1173,320,1120,320C1066.7,320,1013,320,960,320C906.7,320,853,320,800,320C746.7,320,693,320,640,320C586.7,320,533,320,480,320C426.7,320,373,320,320,320C266.7,320,213,320,160,320C106.7,320,53,320,27,320L0,320Z"></path></svg>