<?xml version="1.0" standalone="no"?>
<!DOCTYPE svg PUBLIC "-//W3C//DTD SVG 20010904//EN"
 "http://www.w3.org/TR/2001/REC-SVG-20010904/DTD/svg10.dtd">
<svg version="1.0" xmlns="http://www.w3.org/2000/svg"
 width="500.000000pt" height="500.000000pt" viewBox="0 0 500.000000 500.000000"
 preserveAspectRatio="xMidYMid meet">
<metadata>
Created by potrace 1.14, written by Peter Selinger 2001-2017
</metadata>
<g transform="translate(0.000000,500.000000) scale(0.100000,-0.100000)"
fill="#000000" stroke="none">
<path d="M2275 4554 c-695 -94 -1294 -563 -1555 -1216 -100 -250 -134 -432
-133 -718 0 -226 12 -323 64 -520 24 -90 109 -324 123 -338 7 -6 36 11 36 21
0 6 -15 47 -34 92 -46 106 -100 287 -122 410 -15 80 -19 148 -19 340 1 222 3
249 27 365 63 294 193 576 372 805 26 33 88 102 139 154 337 342 737 529 1230
572 296 27 634 -33 921 -163 646 -291 1080 -914 1124 -1616 30 -474 -103 -918
-386 -1289 -544 -713 -1526 -954 -2331 -572 -80 38 -107 47 -117 38 -8 -6 -14
-15 -14 -19 0 -14 239 -119 350 -153 242 -74 373 -91 657 -85 162 4 231 10
312 27 236 50 497 157 691 282 126 82 224 165 346 292 567 590 705 1477 344
2212 -288 587 -858 995 -1507 1080 -138 18 -382 18 -518 -1z"/>
<path d="M2420 4267 c0 -47 -3 -92 -6 -101 -5 -14 5 -16 75 -16 74 0 82 2 96
24 13 19 14 29 5 45 -6 12 -16 21 -23 21 -7 0 -4 5 6 11 21 12 23 62 2 79 -8
7 -47 15 -85 18 l-70 5 0 -86z m100 18 c0 -8 -7 -15 -15 -15 -8 0 -15 7 -15
15 0 8 7 15 15 15 8 0 15 -7 15 -15z m-5 -75 c0 -7 -6 -15 -12 -17 -8 -3 -13
4 -13 17 0 13 5 20 13 18 6 -3 12 -11 12 -18z"/>
<path d="M2173 4322 c-6 -4 -15 -23 -20 -41 l-9 -35 -13 32 c-13 32 -27 37
-68 26 -20 -6 -19 -8 22 -67 24 -34 45 -73 46 -87 3 -21 9 -25 39 -25 34 0 35
0 32 41 -3 36 4 75 24 147 4 13 0 17 -18 17 -13 0 -28 -4 -35 -8z"/>
<path d="M2685 4313 c-4 -10 -9 -50 -12 -89 -6 -69 -5 -72 20 -89 15 -9 44
-19 66 -22 57 -8 83 21 99 111 14 75 10 86 -35 86 -22 0 -23 -3 -39 -93 -7
-41 -20 -55 -36 -39 -8 8 -8 30 -1 74 11 68 7 78 -33 78 -12 0 -25 -8 -29 -17z"/>
<path d="M1922 4267 c-25 -8 -35 -17 -39 -39 -7 -37 -19 -44 -27 -14 -5 22 -8
23 -40 14 l-33 -11 30 -93 c17 -52 35 -94 39 -94 3 0 18 4 32 10 22 8 24 13
20 47 l-5 38 25 -30 c26 -30 37 -32 84 -14 l25 10 -48 49 -48 49 12 42 c7 22
11 42 9 43 -2 2 -18 -2 -36 -7z"/>
<path d="M2933 4184 c-17 -52 -28 -96 -25 -98 16 -9 114 -38 117 -34 2 1 6 15
10 29 6 23 3 27 -19 33 -31 8 -31 8 -6 81 11 32 19 59 18 60 -2 1 -17 7 -34
12 l-30 11 -31 -94z"/>
<path d="M3125 4115 c-22 -50 -34 -89 -29 -94 5 -5 31 -18 57 -29 l48 -21 11
25 c12 25 6 35 -27 47 -9 3 -2 24 41 123 4 9 -35 34 -55 34 -4 0 -25 -38 -46
-85z"/>
<path d="M1613 4144 c-17 -9 -37 -29 -43 -45 -10 -24 -10 -33 5 -55 16 -25 21
-26 72 -21 39 4 53 2 50 -6 -2 -7 -16 -12 -30 -12 -36 -1 -66 -30 -49 -47 19
-19 79 -14 109 9 40 29 51 65 29 98 -17 26 -21 27 -72 21 -34 -4 -54 -2 -54 4
0 5 11 10 23 10 13 0 32 9 41 19 17 19 17 20 -3 30 -26 14 -40 14 -78 -5z"/>
<path d="M3340 4070 c-28 -28 -25 -62 10 -95 34 -32 38 -45 14 -45 -9 0 -18 8
-21 19 -4 15 -41 41 -58 41 -3 0 -5 -13 -5 -30 0 -37 42 -78 89 -86 29 -6 38
-3 58 20 30 36 29 48 -8 91 -18 20 -29 39 -25 43 4 4 15 -3 24 -15 9 -11 27
-24 40 -28 18 -5 22 -3 22 17 -1 27 -15 47 -50 71 -33 23 -66 21 -90 -3z"/>
<path d="M3613 3850 c-39 -24 -53 -48 -53 -95 0 -67 78 -121 140 -95 l30 12
-21 26 c-12 16 -30 26 -47 27 -22 0 -28 5 -30 27 -2 19 3 30 18 38 29 15 54 5
47 -20 -3 -13 3 -24 21 -36 24 -16 26 -16 39 2 20 27 8 74 -27 107 -36 32 -72
35 -117 7z"/>
<path d="M3805 3619 c-44 -16 -86 -32 -93 -34 -9 -3 -7 -12 9 -34 12 -17 27
-27 35 -24 22 8 45 -16 38 -41 -5 -21 29 -79 38 -66 2 3 30 40 62 83 l57 78
-26 35 c-14 19 -29 34 -33 33 -4 0 -43 -14 -87 -30z m53 -61 c-16 -24 -30 -27
-36 -9 -2 6 7 15 20 20 32 13 32 14 16 -11z"/>
<path d="M3943 3414 c-46 -25 -83 -47 -83 -49 0 -2 5 -16 12 -30 12 -27 24
-30 48 -15 11 7 23 0 46 -26 17 -18 41 -34 52 -34 30 0 72 38 72 66 0 23 -49
134 -60 134 -3 0 -42 -21 -87 -46z m87 -58 c0 -20 -19 -31 -32 -18 -6 6 -7 15
-4 21 10 16 36 13 36 -3z"/>
<path d="M4047 3187 c-73 -30 -77 -34 -72 -57 11 -42 21 -44 92 -15 37 15 78
31 90 36 20 7 21 11 10 38 -6 17 -18 31 -27 30 -8 -1 -50 -15 -93 -32z"/>
<path d="M4173 3073 c-16 -3 -21 -11 -20 -31 2 -24 -3 -28 -57 -42 -65 -18
-71 -25 -57 -62 l10 -26 66 19 c66 18 67 18 72 -1 5 -20 47 -28 57 -12 7 11
-34 163 -43 161 -3 -1 -16 -4 -28 -6z"/>
<path d="M1960 3034 c-129 -20 -232 -98 -268 -203 -15 -41 -15 -143 -2 -192
14 -51 69 -110 132 -142 40 -21 84 -31 171 -42 162 -20 202 -44 177 -109 -11
-30 -38 -43 -95 -46 -93 -6 -112 -1 -160 40 -46 40 -47 40 -130 40 -101 0
-119 -12 -109 -68 9 -52 40 -108 70 -129 14 -10 38 -28 53 -40 71 -56 230 -78
351 -49 81 20 181 75 210 117 71 98 66 248 -10 327 -51 52 -126 80 -265 99
-120 15 -166 35 -175 73 -16 66 29 110 112 110 60 0 89 -11 132 -52 34 -32 37
-33 116 -32 120 2 133 24 79 132 -62 126 -217 191 -389 166z m66 -52 c-4 -3
-14 2 -24 12 -16 18 -16 18 6 6 13 -6 21 -14 18 -18z m-113 11 c-7 -2 -13 -12
-13 -20 0 -9 -3 -14 -6 -10 -10 10 4 37 18 36 10 0 10 -2 1 -6z m-53 -53 c0
-15 -9 -22 -30 -26 -16 -4 -30 -10 -30 -15 0 -5 -4 -9 -10 -9 -18 0 -10 32 9
37 12 3 17 11 14 19 -4 10 3 14 21 14 19 0 26 -5 26 -20z m285 -17 c62 -28
105 -62 105 -84 0 -26 -12 -24 -40 6 -60 64 -212 85 -299 40 -76 -38 -101 -74
-101 -147 0 -123 40 -147 317 -189 114 -17 172 -68 181 -157 13 -137 -114
-231 -297 -220 -85 5 -167 40 -197 85 -24 38 -10 38 45 -1 90 -61 213 -71 320
-25 90 38 127 139 81 215 -30 47 -89 72 -205 84 -158 16 -217 40 -255 102 -25
41 -27 131 -4 187 17 44 100 107 158 122 46 12 146 3 191 -18z m-357 -45 c7
-10 3 -21 -16 -43 -23 -27 -25 -28 -19 -7 4 18 2 22 -9 18 -11 -4 -10 0 3 19
21 28 27 30 41 13z m-48 -82 c0 -2 -8 -10 -17 -17 -16 -13 -17 -12 -4 4 13 16
21 21 21 13z m-5 -55 c-3 -6 -11 -11 -17 -11 -6 0 -6 6 2 15 14 17 26 13 15
-4z m138 12 c-7 -2 -19 -2 -25 0 -7 3 -2 5 12 5 14 0 19 -2 13 -5z m7 -29 c0
-14 -3 -14 -15 -4 -8 7 -15 14 -15 16 0 2 7 4 15 4 8 0 15 -7 15 -16z m-130
-8 c0 -3 -4 -8 -10 -11 -5 -3 -10 -1 -10 4 0 6 5 11 10 11 6 0 10 -2 10 -4z
m150 -61 c0 -12 -29 -3 -34 10 -4 13 -2 14 14 5 11 -6 20 -13 20 -15z m-130
-35 c0 -5 -5 -10 -11 -10 -5 0 -7 5 -4 10 3 6 8 10 11 10 2 0 4 -4 4 -10z
m131 -117 c13 -16 12 -17 -3 -4 -10 7 -18 15 -18 17 0 8 8 3 21 -13z m454
-242 c-6 -20 -35 -19 -35 1 0 5 4 7 9 4 5 -3 12 1 15 10 9 24 19 10 11 -15z
m-40 -51 c-3 -5 -12 -7 -20 -3 -21 7 -19 13 6 13 11 0 18 -4 14 -10z m-105
-58 c0 -4 -15 -13 -33 -20 -41 -15 -47 -15 -47 -2 0 6 11 10 24 10 14 0 28 5
31 10 7 12 25 13 25 2z"/>
<path d="M2575 3014 c-14 -15 -15 -62 -13 -449 3 -359 5 -435 17 -449 13 -15
29 -17 108 -14 70 2 96 7 103 18 5 8 10 66 10 128 0 109 1 113 24 123 14 7 40
9 60 5 40 -8 65 -36 116 -133 18 -35 47 -78 64 -98 30 -34 33 -35 128 -41 113
-8 148 -2 148 25 0 11 -36 77 -80 147 -44 70 -80 136 -80 145 0 10 18 38 39
63 22 25 49 71 61 103 42 111 10 263 -74 346 -79 80 -151 96 -418 97 -168 0
-199 -2 -213 -16z m535 -54 c8 -5 12 -11 10 -14 -3 -2 -14 2 -24 10 -22 15
-10 19 14 4z m-29 -52 c29 -17 59 -47 80 -79 70 -110 43 -238 -67 -320 -30
-22 -54 -43 -54 -47 0 -5 24 -46 53 -93 76 -120 102 -168 94 -176 -12 -11 -35
19 -106 138 -39 65 -78 119 -92 126 -15 8 -69 13 -145 13 -155 0 -151 4 -153
-149 -1 -63 -4 -117 -7 -120 -19 -19 -24 58 -23 362 0 325 1 339 21 359 18 18
30 19 186 16 161 -3 169 -4 213 -30z m109 -14 c0 -8 5 -14 10 -14 6 0 10 -7
10 -15 0 -16 -9 -19 -25 -7 -13 9 -16 64 -4 56 5 -3 9 -12 9 -20z m80 -121 c0
-2 -7 -3 -17 -3 -9 0 -13 -3 -9 -7 4 -5 13 -8 19 -8 14 0 18 -103 4 -112 -11
-7 -31 -55 -28 -70 1 -7 -5 -13 -13 -13 -9 0 -12 -7 -9 -19 3 -10 -1 -22 -8
-26 -8 -5 -10 -4 -5 4 4 7 -2 15 -16 20 -13 6 -17 10 -10 10 6 1 12 11 12 23
0 34 23 88 37 88 14 0 18 16 5 22 -5 2 -12 32 -15 67 -6 55 -5 62 9 57 10 -4
14 -2 11 6 -2 7 -10 12 -16 11 -6 -2 -11 1 -11 6 0 5 8 11 18 13 12 2 21 -7
29 -32 7 -19 13 -36 13 -37z m-73 -277 c3 -3 0 -6 -9 -6 -8 0 -19 -10 -25 -22
-10 -22 -10 -22 -15 8 -4 29 -2 32 19 29 13 -1 27 -5 30 -9z m-82 -86 c3 -5 1
-10 -4 -10 -6 0 -11 5 -11 10 0 6 2 10 4 10 3 0 8 -4 11 -10z m50 -60 c3 -5
-1 -10 -9 -10 -9 0 -16 5 -16 10 0 6 4 10 9 10 6 0 13 -4 16 -10z m53 -69 c27
-22 27 -28 4 -26 -27 2 -42 14 -35 30 7 19 6 19 31 -4z m27 -51 c3 -5 2 -10
-4 -10 -5 0 -13 5 -16 10 -3 6 -2 10 4 10 5 0 13 -4 16 -10z m-145 -50 c0 -5
-2 -10 -4 -10 -3 0 -8 5 -11 10 -3 6 -1 10 4 10 6 0 11 -4 11 -10z m160 -6 c0
-8 -6 -11 -15 -8 -8 4 -15 9 -15 13 0 4 7 8 15 8 8 0 15 -6 15 -13z m-30 -24
c0 -3 -13 -7 -30 -7 -28 0 -29 1 -12 17 16 16 42 10 42 -10z"/>
<path d="M2707 2892 c-14 -15 -16 -44 -14 -195 2 -144 5 -180 17 -188 9 -6 81
-8 170 -7 144 3 157 5 190 27 112 76 131 220 42 314 -55 58 -87 67 -245 67
-125 0 -146 -2 -160 -18z m227 -17 c-7 -18 -20 -19 -30 -3 -4 6 -3 8 4 4 6 -3
13 -2 17 4 9 15 15 12 9 -5z m136 -45 c0 -5 -5 -10 -11 -10 -5 0 -7 5 -4 10 3
6 8 10 11 10 2 0 4 -4 4 -10z m-65 -25 c71 -34 75 -147 7 -202 -24 -20 -176
-17 -196 3 -24 24 -23 189 2 203 27 16 149 13 187 -4z m109 -52 c-5 -15 -3
-15 10 1 15 19 16 19 16 -7 0 -17 -5 -27 -15 -27 -8 0 -15 -4 -15 -10 0 -5 6
-10 13 -10 9 0 13 -11 12 -30 -2 -38 -10 -46 -31 -30 -11 10 -14 23 -9 48 4
23 2 38 -6 42 -16 10 -4 40 15 40 10 0 13 -6 10 -17z m-26 -144 c3 -11 2 -11
-7 1 -7 10 -11 11 -11 3 0 -7 -7 -13 -15 -13 -18 0 -20 16 -2 23 18 8 30 3 35
-14z"/>
<path d="M4074 2786 c4 -17 12 -36 20 -41 22 -17 29 -52 11 -59 -14 -5 -22
-56 -9 -68 3 -3 48 12 99 35 l95 40 -7 41 c-3 23 -7 43 -9 45 -2 2 -49 12
-105 21 l-101 17 6 -31z m130 -55 c3 -5 -1 -12 -10 -15 -25 -10 -34 -7 -34 9
0 16 35 21 44 6z"/>
<path d="M4095 2506 c-10 -63 -4 -80 28 -84 24 -3 27 0 27 27 l0 31 69 0 c63
0 69 2 75 23 12 46 11 47 -93 47 l-100 0 -6 -44z"/>
</g>
</svg>
