<svg class="svg-icon" style="width: 1em; height: 1em;vertical-align: middle;fill: currentColor;overflow: hidden;" viewBox="0 0 1024 1024" version="1.1" xmlns="http://www.w3.org/2000/svg"><path d="M95.573333 558.545455l3.134061 0c33.605818 0 54.427152-26.158545 46.638545-58.647273-0.186182-1.086061-0.310303-1.861818-0.558545-3.289212C141.405091 476.377212 139.636364 455.617939 139.636364 434.424242 139.636364 228.786424 306.362182 62.060606 512 62.060606s372.363636 166.725818 372.363636 372.363636c0 21.193697-1.768727 41.95297-5.182061 62.184727-0.186182 1.148121-0.279273 1.737697-0.434424 2.668606-7.571394 32.954182 12.381091 59.019636 46.359273 58.678303 0 0 3.475394 0.124121 3.537455-0.124121C990.952727 551.222303 1008.484848 498.501818 1008.484848 434.424242c0-64.077576-17.532121-116.798061-79.84097-123.407515C875.457939 131.196121 709.042424 0 512 0S148.542061 131.196121 95.356121 311.016727C33.047273 317.626182 15.515152 370.346667 15.515152 434.424242 15.515152 498.501818 33.047273 551.222303 95.573333 558.545455z"  /><path d="M813.645576 713.386667 813.645576 713.386667c-23.396848-14.522182-53.589333-11.884606-74.100364 6.485333l0 0C677.360485 775.540364 597.209212 806.787879 512 806.787879s-165.360485-31.247515-227.545212-86.915879l0 0c-20.51103-18.369939-50.703515-21.007515-74.100364-6.485333l0 0c-99.514182 61.719273-167.098182 151.800242-187.981576 253.455515-3.847758 18.711273-3.816727 26.313697-3.816727 26.313697C16.973576 1010.191515 29.447758 1024 46.731636 1024c17.159758 0 32.488727-13.591273 34.629818-30.626909 0 0 0.124121-9.153939 5.12-28.237576 19.207758-73.479758 68.452848-138.333091 137.216-186.305939 11.264-7.850667 26.313697-6.361212 37.050182 2.203152C329.665939 836.018424 416.985212 868.848485 512 868.848485c95.014788 0 182.334061-32.830061 251.283394-87.784727 10.736485-8.564364 25.786182-10.053818 37.019152-2.203152 68.111515 47.507394 117.108364 111.616 136.688485 184.257939 5.306182 19.735273 5.523394 29.820121 5.523394 29.820121C944.562424 1010.098424 960.015515 1024 977.268364 1024c17.159758 0 29.851152-13.901576 28.113455-30.68897 0 0-0.155152-9.929697-4.406303-29.633939C979.347394 863.325091 912.135758 774.454303 813.645576 713.386667z"  /><path d="M512 124.121212C340.619636 124.121212 201.69697 263.043879 201.69697 434.424242c0 171.380364 138.922667 310.30303 310.30303 310.30303s310.30303-138.922667 310.30303-310.30303C822.30303 263.043879 683.380364 124.121212 512 124.121212zM512 682.666667c-137.091879 0-248.242424-111.150545-248.242424-248.242424s111.150545-248.242424 248.242424-248.242424 248.242424 111.150545 248.242424 248.242424S649.091879 682.666667 512 682.666667z"  /></svg>