<svg class="svg-icon" style="width: 1em;height: 1em;vertical-align: middle;fill: currentColor;overflow: hidden;" viewBox="0 0 1024 1024" version="1.1" xmlns="http://www.w3.org/2000/svg"><path d="M622.336 21.333333A85.333333 85.333333 0 0 1 682.666667 46.336L913.664 277.333333A85.333333 85.333333 0 0 1 938.666667 337.664V874.666667a128 128 0 0 1-128 128H213.333333a128 128 0 0 1-128-128v-725.333334a128 128 0 0 1 128-128z m-25.045333 85.290667L213.333333 106.666667a42.666667 42.666667 0 0 0-42.666666 42.666666v725.333334a42.666667 42.666667 0 0 0 42.666666 42.666666h597.333334a42.666667 42.666667 0 0 0 42.666666-42.666666l-0.042666-512.042667L704 362.666667a106.666667 106.666667 0 0 1-106.453333-99.669334L597.333333 256l-0.042666-149.376z m106.453333 387.541333a192.085333 192.085333 0 0 1 26.837333 237.952l78.762667 78.848a42.666667 42.666667 0 0 1-60.330667 60.330667l-78.805333-78.805333a192.085333 192.085333 0 0 1-237.994667-298.325334 192 192 0 0 1 271.530667 0z m-226.261333 45.226667a128 128 0 1 0 180.992 181.034667 128 128 0 0 0-180.992-180.992zM317.781333 426.666667a42.666667 42.666667 0 1 1 0 85.333333 42.666667 42.666667 0 0 1 0-85.333333z m170.666667-192a42.666667 42.666667 0 0 1 0 85.333333h-170.666667a42.666667 42.666667 0 1 1 0-85.333333h170.666667zM682.666667 167.04V256a21.333333 21.333333 0 0 0 17.493333 20.992l3.84 0.341333 88.874667-0.042666L682.666667 167.04z"  /></svg>