<svg class="svg-icon" style="width: 1.0419921875em;height: 1em;vertical-align: middle;fill: currentColor;overflow: hidden;" viewBox="0 0 1067 1024" version="1.1" xmlns="http://www.w3.org/2000/svg"><path d="M449.405277 205.453617a29.663319 29.663319 0 0 1 1.797446 59.283064l-1.797446 0.054468H107.084255c-18.246809 0-36.036085 14.57566-37.245276 28.181787l-0.054468 1.459745a29.663319 29.663319 0 0 1-59.337532 0c0-48.226043 45.230298-87.530213 93.924766-88.93549l2.71251-0.043574h342.310128zM32.680851 383.379064a29.674213 29.674213 0 0 1 29.608851 27.865872l0.054468 1.808341v518.961021c0 11.612596 22.244766 28.465021 42.648511 29.57617l2.102468 0.065362h654.848c10.00034 0 14.619234-6.438128 14.956936-27.103319l0.021787-2.538213V694.773106a29.663319 29.663319 0 0 1 59.283064-1.80834l0.054468 1.80834v237.241192c0 50.491915-23.67183 87.497532-71.429447 88.924596l-2.886808 0.043574H107.084255c-49.609532 0-102.171234-38.258383-104.034042-86.342808l-0.043575-2.625362v-518.971915A29.663319 29.663319 0 0 1 32.680851 383.389957z"  /><path d="M619.020657 242.660766a44.478638 44.652936 60 1 0 77.341154-44.652936 44.478638 44.652936 60 1 0-77.341154 44.652936Z"  /><path d="M797.648742 420.478736a44.478638 44.652936 60 1 0 77.341154-44.652936 44.478638 44.652936 60 1 0-77.341154 44.652936Z"  /><path d="M830.300596 184.450723a29.663319 29.663319 0 0 1 43.269447 40.546043l-1.394383 1.481532-208.362213 207.588766a29.663319 29.663319 0 0 1-43.269447-40.556936l1.394383-1.481532 208.362213-207.577873zM657.756596 813.371915a29.663319 29.663319 0 0 1 1.80834 59.283064l-1.80834 0.054468H181.509447a29.663319 29.663319 0 0 1-1.808341-59.283064l1.808341-0.054468H657.756596zM404.75234 724.414638a29.663319 29.663319 0 0 1 1.808341 59.283064l-1.808341 0.054468H181.509447a29.663319 29.663319 0 0 1-1.808341-59.283064l1.808341-0.054468h223.242893z"  /><path d="M747.051574 0.326809c-171.182298 0-309.988766 138.283574-309.988765 308.932085 0 170.648511 138.806468 308.942979 309.988765 308.942978 171.182298 0 309.99966-138.294468 309.99966-308.942978S918.222979 0.315915 747.051574 0.315915z m0 54.435404c141.170383 0 255.564255 113.958128 255.564256 254.496681 0 140.52766-114.393872 254.496681-255.564256 254.49668-141.159489 0-255.553362-113.969021-255.553361-254.49668 0-140.52766 114.393872-254.496681 255.564255-254.496681z"  /></svg>