<svg class="svg-icon" style="width: 1em; height: 1em;vertical-align: middle;fill: currentColor;overflow: hidden;" viewBox="0 0 1024 1024" version="1.1" xmlns="http://www.w3.org/2000/svg"><path d="M640.000563 896.008079H384.016722a31.99798 31.99798 0 0 1 0-63.99596h255.983841a31.99798 31.99798 0 0 1 0 63.99596zM576.004602 1024H448.012682a31.99798 31.99798 0 0 1 0-63.99596h127.99192a31.99798 31.99798 0 0 1 0 63.99596zM628.865265 768.016159H395.152019a33.661875 33.661875 0 0 1-10.047366-1.599899c-162.741727-53.884599-272.110823-203.699141-272.110823-372.840464C112.99383 176.565494 291.990531 0.064636 512.008642 0.064636s399.014812 176.500858 399.014812 393.51116c0 169.141323-109.369096 318.955866-272.110823 372.840464a33.021915 33.021915 0 0 1-10.047366 1.599899z m-228.465578-63.99596h223.21791c133.879549-46.525063 223.409897-170.677226 223.409897-310.444403C847.027494 211.891264 696.764979 64.060596 512.008642 64.060596S176.98979 211.891264 176.98979 393.575796c0 139.767177 89.594344 263.91934 223.409897 310.444403z"  /><path d="M726.523101 288.686417a31.99798 31.99798 0 0 1-26.750312-14.463087 221.809998 221.809998 0 0 0-162.869718-98.873759 31.99798 31.99798 0 0 1-28.414207-35.261774 31.550008 31.550008 0 0 1 35.261774-28.35021 285.421983 285.421983 0 0 1 209.522774 127.415956 31.99798 31.99798 0 0 1-26.750311 49.532874zM879.025474 119.033126a31.99798 31.99798 0 0 1-14.015115-60.732166l112.95287-54.97253a31.99798 31.99798 0 0 1 28.03023 57.532368l-112.95287 54.97253a31.805992 31.805992 0 0 1-14.015115 3.199798zM991.978344 228.978186h-56.508433a31.99798 31.99798 0 0 1 0-63.995961h56.508433a31.99798 31.99798 0 0 1 0 63.995961z"  /><path d="M144.927814 119.033126a31.99798 31.99798 0 0 1-13.951119-3.199798L18.023825 60.860798A32.125972 32.125972 0 0 1 3.240758 18.047501 32.125972 32.125972 0 0 1 46.054055 3.264434l112.95287 54.97253a31.99798 31.99798 0 0 1-14.079111 60.796162zM88.483377 228.978186H32.03894a31.99798 31.99798 0 0 1 0-63.995961h56.444437a31.99798 31.99798 0 0 1 0 63.995961z"  /></svg>