<svg class="svg-icon" style="width: 1em; height: 1em;vertical-align: middle;fill: currentColor;overflow: hidden;" viewBox="0 0 1024 1024" version="1.1" xmlns="http://www.w3.org/2000/svg"><path d="M844.8 494.08c0-181.76-148.48-330.24-330.24-330.24C332.8 163.84 184.32 312.32 184.32 494.08c0 181.76 148.48 327.68 330.24 327.68C696.32 821.76 844.8 675.84 844.8 494.08zM514.56 773.12c-153.6 0-279.04-125.44-279.04-279.04S360.96 215.04 514.56 215.04 793.6 340.48 793.6 494.08 668.16 773.12 514.56 773.12z"  /><path d="M934.4 404.48c-10.24-2.56-17.92-10.24-20.48-20.48C862.72 209.92 701.44 84.48 512 84.48c-192 0-350.72 128-401.92 302.08-2.56 10.24-10.24 17.92-20.48 20.48 0 0-89.6 20.48-89.6 117.76 0 69.12 56.32 122.88 122.88 122.88 7.68 0 15.36 0 23.04-2.56 2.56 0 2.56 0 2.56 0l0-2.56c-17.92-43.52-28.16-92.16-28.16-143.36 0-215.04 176.64-391.68 391.68-391.68s391.68 176.64 391.68 391.68c0 161.28-99.84 302.08-240.64 360.96-23.04 7.68-35.84 7.68-56.32 5.12-20.48 0-30.72-2.56-30.72-2.56l-2.56 0c-20.48 0-38.4 17.92-38.4 38.4s17.92 38.4 38.4 38.4c7.68 0 15.36-2.56 20.48-5.12 43.52-33.28 81.92-51.2 81.92-51.2 92.16-38.4 166.4-110.08 209.92-199.68 0 0 10.24-28.16 51.2-40.96 0 0 87.04-28.16 87.04-117.76C1024 424.96 934.4 404.48 934.4 404.48z"  /><path d="M660.48 622.08c-7.68 0-12.8 7.68-12.8 7.68-30.72 38.4-76.8 64-130.56 64-53.76 0-99.84-25.6-130.56-64 0 0-5.12-5.12-10.24-5.12-7.68 0-12.8 5.12-12.8 12.8 0 5.12 2.56 7.68 5.12 10.24 35.84 43.52 89.6 71.68 148.48 71.68 61.44 0 117.76-30.72 151.04-74.24 2.56-2.56 5.12-5.12 5.12-10.24C673.28 627.2 668.16 622.08 660.48 622.08z"  /><path d="M683.52 604.16m-12.8 0a0.5 0.5 0 1 0 25.6 0 0.5 0.5 0 1 0-25.6 0Z"  /></svg>